<?xml version="1.0" encoding="UTF-8" standalone="no"?>
<!DOCTYPE svg PUBLIC "-//W3C//DTD SVG 1.1//EN" "http://www.w3.org/Graphics/SVG/1.1/DTD/svg11.dtd">
<svg xmlns="http://www.w3.org/2000/svg" xmlns:xlink="http://www.w3.org/1999/xlink" version="1.1" width="751.059pt" height="632.706pt" viewBox="0 0 751.059 632.706">
<g enable-background="new">
<g id="Layer-1" data-name="Camada 1">
<clipPath id="cp0">
<path transform="matrix(1,0,0,-1,0,632.706)" d="M 0 632.706 L 751.059 632.706 L 751.059 0 L 0 0 Z "/>
</clipPath>
<g clip-path="url(#cp0)">
<path transform="matrix(1,0,0,-1,661.0588,321.706)" stroke-width="6.5" stroke-linecap="butt" stroke-miterlimit="10" stroke-linejoin="miter" fill="none" stroke="#1d1d1b" d="M 0 0 C 0 -84.5 -174.036 -153 -388.721 -153 C -603.405 -153 -777.441 -84.5 -777.441 0 C -777.441 84.499 -603.405 153 -388.721 153 C -174.036 153 0 84.499 0 0 Z "/>
<path transform="matrix(1,0,0,-1,0,632.706)" d="M 246.088 147.411 L -160.588 147.411 L -160.588 472.46998 L 246.088 472.46998 Z " fill="#ffffff"/>
<path transform="matrix(1,0,0,-1,39.5295,35.859315)" d="M 0 0 L 0 -497.788 " fill="#ffffff"/>
<path transform="matrix(1,0,0,-1,39.5295,35.859315)" stroke-width="6.5" stroke-linecap="butt" stroke-miterlimit="10" stroke-linejoin="miter" fill="none" stroke="#1d1d1b" d="M 0 0 L 0 -497.788 "/>
<path transform="matrix(1,0,0,-1,250.2351,533.6474)" d="M 0 0 L 0 497.302 " fill="#ffffff"/>
<path transform="matrix(1,0,0,-1,250.2351,533.6474)" stroke-width="6.5" stroke-linecap="butt" stroke-miterlimit="10" stroke-linejoin="miter" fill="none" stroke="#1d1d1b" d="M 0 0 L 0 497.302 "/>
<path transform="matrix(1,0,0,-1,142.2351,34.319765)" d="M 0 0 L 0 -517.681 " fill="#ffffff"/>
<path transform="matrix(1,0,0,-1,142.2351,34.319765)" stroke-width="3" stroke-linecap="butt" stroke-miterlimit="10" stroke-linejoin="miter" fill="none" stroke="#1d1d1b" d="M 0 0 L 0 -25 "/>
<path transform="matrix(1,0,0,-1,142.2356,81.072208)" stroke-width="3" stroke-linecap="butt" stroke-dasharray="54.382,0" stroke-miterlimit="10" stroke-linejoin="miter" fill="none" stroke="#1d1d1b" d="M 0 0 L 0 -54.381 "/>
<path transform="matrix(1,0,0,-1,142.2356,135.45359)" stroke-width="3" stroke-linecap="butt" stroke-dasharray="54.382,21.753,54.382,0" stroke-miterlimit="10" stroke-linejoin="miter" fill="none" stroke="#1d1d1b" d="M 0 0 L 0 -391.547 "/>
<path transform="matrix(1,0,0,-1,142.2356,527.0009)" stroke-width="3" stroke-linecap="butt" stroke-miterlimit="10" stroke-linejoin="miter" fill="none" stroke="#1d1d1b" d="M 0 0 L 0 -25 "/>
<path transform="matrix(1,0,0,-1,543.2151,229.6987)" stroke-width="2" stroke-linecap="butt" stroke-miterlimit="10" stroke-linejoin="miter" fill="none" stroke="#1d1d1b" d="M 0 0 L -.039 -184.042 "/>
<path transform="matrix(1,0,0,-1,537.4036,233.6601)" d="M 0 0 L 5.815 21.68 L 11.621 -.003 Z " fill="#1d1d1b"/>
<path transform="matrix(1,0,0,-1,537.3655,409.77729)" d="M 0 0 L 5.807 -21.683 L 11.621 -.003 Z " fill="#1d1d1b"/>
<path transform="matrix(1,0,0,-1,361.6985,173.76999)" stroke-width="3" stroke-linecap="butt" stroke-dasharray="16,6" stroke-miterlimit="10" stroke-linejoin="miter" fill="none" stroke="#1d1d1b" d="M 0 0 L -.124 -296.884 "/>
<path transform="matrix(1,0,0,-1,250.2375,168.70648)" stroke-width="3" stroke-linecap="butt" stroke-miterlimit="10" stroke-linejoin="miter" fill="none" stroke="#1d1d1b" d="M 0 0 L 446.078 .029 "/>
<path transform="matrix(1,0,0,-1,683.8909,184.0151)" d="M 0 0 L -2.559 2.747 L 10.985 15.334 L -2.56 27.923 L -.002 30.67 L 16.491 15.334 Z " fill="#1d1d1b"/>
<path transform="matrix(1,0,0,-1,142.9035,35.82611)" stroke-width="3" stroke-linecap="butt" stroke-miterlimit="10" stroke-linejoin="miter" fill="none" stroke="#1d1d1b" d="M 0 0 L 550.331 -.042 "/>
<path transform="matrix(1,0,0,-1,680.8079,51.203615)" d="M 0 0 L -2.558 2.747 L 10.987 15.332 L -2.556 27.923 L .002 30.67 L 16.493 15.332 Z " fill="#1d1d1b"/>
</g>
<text xml:space="preserve" transform="matrix(1 0 -0 1 0 632.706)" font-size="47" font-family="LucidaConsole"><tspan y="-589.7373" x="708.2817">&#x03be;</tspan></text>
<text xml:space="preserve" transform="matrix(1 0 -0 1 0 632.706)" font-size="47" font-family="Tahoma"><tspan y="-458.6543" x="710.9137">y</tspan></text>
<clipPath id="cp1">
<path transform="matrix(1,0,0,-1,0,632.706)" d="M 0 632.706 L 751.059 632.706 L 751.059 0 L 0 0 Z "/>
</clipPath>
<g clip-path="url(#cp1)">
<path transform="matrix(1,0,0,-1,342.1184,200.85388)" stroke-width="3" stroke-linecap="butt" stroke-miterlimit="10" stroke-linejoin="miter" fill="none" stroke="#1d1d1b" d="M 0 0 L -39.06 56.5 "/>
<path transform="matrix(1,0,0,-1,345.3772,192.38669)" d="M 0 0 L 9.738 -27.269 L -12.332 -8.524 Z " fill="#1d1d1b"/>
</g>
<text xml:space="preserve" transform="matrix(1 0 -0 1 0 632.706)" font-size="24" font-family="Cambria"><tspan y="-543.2603" x="267.9692 287.7692 301.6388 316.83079">MEAN</tspan><tspan y="-519.2603" x="267.9692 283.1612 297.2012 311.8652 327.7772 343.33399 357.254 373.3724 388.5644 408.36439 416.38038">AERODYNAMIC</tspan><tspan y="-495.2603" x="267.9692 281.70924 298.42524 314.33723 329.48124">CHORD</tspan></text>
<clipPath id="cp2">
<path transform="matrix(1,0,0,-1,0,632.706)" d="M 0 632.706 L 751.059 632.706 L 751.059 0 L 0 0 Z "/>
</clipPath>
<g clip-path="url(#cp2)">
<path transform="matrix(1,0,0,-1,142.2351,588.2353)" stroke-width="2" stroke-linecap="butt" stroke-miterlimit="10" stroke-linejoin="miter" fill="none" stroke="#1d1d1b" d="M 0 0 L 90.281 0 "/>
<path transform="matrix(1,0,0,-1,228.5535,594.0458)" d="M 0 0 L 21.682 5.811 L 0 11.621 Z " fill="#1d1d1b"/>
<path transform="matrix(1,0,0,-1,142.0149,563.7656)" stroke-width="4" stroke-linecap="butt" stroke-miterlimit="10" stroke-linejoin="miter" fill="none" stroke="#1d1d1b" d="M 0 0 L 0 -44.235 "/>
<path transform="matrix(1,0,0,-1,250.2351,563.7656)" stroke-width="4" stroke-linecap="butt" stroke-miterlimit="10" stroke-linejoin="miter" fill="none" stroke="#1d1d1b" d="M 0 0 L 0 -44.235 "/>
<text xml:space="preserve" transform="matrix(1 0 -0 1 0 632.706)" font-size="57" font-family="Cambria"><tspan y="0" x="179.8662">r</tspan></text>
<path transform="matrix(1,0,0,-1,661.0588,321.706)" stroke-width="2" stroke-linecap="butt" stroke-dasharray="32,8" stroke-miterlimit="10" stroke-linejoin="miter" fill="none" stroke="#1d1d1b" d="M 0 0 L 0 -266.529 "/>
<path transform="matrix(1,0,0,-1,267.9539,588.2353)" stroke-width="2" stroke-linecap="butt" stroke-miterlimit="10" stroke-linejoin="miter" fill="none" stroke="#1d1d1b" d="M 0 0 L 162.988 0 "/>
<path transform="matrix(1,0,0,-1,271.9167,594.0458)" d="M 0 0 L -21.682 5.811 L 0 11.621 Z " fill="#1d1d1b"/>
<path transform="matrix(1,0,0,-1,643.3401,588.2353)" stroke-width="2" stroke-linecap="butt" stroke-miterlimit="10" stroke-linejoin="miter" fill="none" stroke="#1d1d1b" d="M 0 0 L -158.164 0 "/>
<path transform="matrix(1,0,0,-1,639.3772,582.4247)" d="M 0 0 L 21.682 -5.811 L 0 -11.621 Z " fill="#1d1d1b"/>
<path transform="matrix(1,0,0,-1,661.0588,563.7656)" stroke-width="4" stroke-linecap="butt" stroke-miterlimit="10" stroke-linejoin="miter" fill="none" stroke="#1d1d1b" d="M 0 0 L 0 -44.235 "/>
<text xml:space="preserve" transform="matrix(1 0 -0 1 0 632.706)" font-size="57" font-family="Cambria"><tspan y="-31.8848" x="444.5889">s</tspan></text>
<path transform="matrix(1,0,0,-1,218.7649,168.7055)" stroke-width="3" stroke-linecap="butt" stroke-miterlimit="10" stroke-linejoin="miter" fill="none" stroke="#1d1d1b" d="M 0 0 L 0 -110.353 "/>
<path transform="matrix(1,0,0,-1,243.2351,168.70648)" stroke-width="4" stroke-linecap="butt" stroke-miterlimit="10" stroke-linejoin="miter" fill="none" stroke="#1d1d1b" d="M 0 0 L -44.235 0 "/>
<path transform="matrix(1,0,0,-1,218.7644,474.707)" stroke-width="3" stroke-linecap="butt" stroke-miterlimit="10" stroke-linejoin="miter" fill="none" stroke="#1d1d1b" d="M 0 0 L 0 131.177 "/>
<path transform="matrix(1,0,0,-1,243.2351,474.706)" stroke-width="4" stroke-linecap="butt" stroke-miterlimit="10" stroke-linejoin="miter" fill="none" stroke="#1d1d1b" d="M 0 0 L -44.235 0 "/>
</g>
<text xml:space="preserve" transform="matrix(1 0 -0 1 0 632.706)" font-size="49" font-family="Cambria"><tspan y="-304.2637" x="193.5869 221.1739">Cr</tspan></text>
<text xml:space="preserve" transform="matrix(1 0 -0 1 0 632.706)" font-size="47" font-family="Tahoma"><tspan y="-294.6377" x="553.6201">c</tspan></text>
<clipPath id="cp3">
<path transform="matrix(1,0,0,-1,0,632.706)" d="M 0 632.706 L 751.059 632.706 L 751.059 0 L 0 0 Z "/>
</clipPath>
<g clip-path="url(#cp3)">
<path transform="matrix(1,0,0,-1,265.345,400.2353)" stroke-width="2" stroke-linecap="butt" stroke-miterlimit="10" stroke-linejoin="miter" fill="none" stroke="#1d1d1b" d="M 0 0 L 81.12 0 "/>
<path transform="matrix(1,0,0,-1,268.5149,404.8837)" d="M 0 0 L -17.345 4.648 L 0 9.297 Z " fill="#1d1d1b"/>
<path transform="matrix(1,0,0,-1,343.2952,404.8837)" d="M 0 0 L 17.346 4.648 L 0 9.297 Z " fill="#1d1d1b"/>
</g>
<text xml:space="preserve" transform="matrix(1 0 -0 1 0 632.706)" font-size="46" font-family="Cambria"><tspan y="-249.5195" x="272.3379">Y</tspan></text>
<text xml:space="preserve" transform="matrix(1 0 -0 1 0 632.706)" font-size="49" font-family="Cambria"><tspan y="-249.5195" x="298.5723 328.3153">&#x2098;&#x2090;</tspan></text>
</g>
</g>
</svg>
